<svg id="visual" viewBox="0 0 960 140" width="960" height="140" xmlns="http://www.w3.org/2000/svg" xmlns:xlink="http://www.w3.org/1999/xlink" version="1.1"><rect x="0" y="0" width="960" height="140" fill="#00ffff"></rect><path d="M0 91L17.8 86.3C35.7 81.7 71.3 72.3 106.8 69.8C142.3 67.3 177.7 71.7 213.2 62.7C248.7 53.7 284.3 31.3 320 25.7C355.7 20 391.3 31 426.8 45.7C462.3 60.3 497.7 78.7 533.2 87.7C568.7 96.7 604.3 96.3 640 92.3C675.7 88.3 711.3 80.7 746.8 70.3C782.3 60 817.7 47 853.2 47.5C888.7 48 924.3 62 942.2 69L960 76" fill="none" stroke-linecap="round" stroke-linejoin="miter" stroke="#49aae1" stroke-width="40"></path></svg>